<svg width="74" height="11" viewBox="0 0 74 11" fill="none" xmlns="http://www.w3.org/2000/svg">
<path d="M68.5589 8.30868L71.9216 10.3382L71.0292 6.51309L74.0001 3.93941L70.0879 3.6075L68.5589 0L67.03 3.6075L63.1177 3.93941L66.0886 6.51309L65.1963 10.3382L68.5589 8.30868Z" fill="#4D4D4D" fill-opacity="0.59"/>
<path d="M52.7795 8.30868L56.1421 10.3382L55.2498 6.51309L58.2207 3.93941L54.3085 3.6075L52.7795 0L51.2505 3.6075L47.3383 3.93941L50.3092 6.51309L49.4169 10.3382L52.7795 8.30868Z" fill="#4D4D4D" fill-opacity="0.59"/>
<path d="M37.0001 8.30868L40.3628 10.3382L39.4704 6.51309L42.4413 3.93941L38.5291 3.6075L37.0001 0L35.4711 3.6075L31.5589 3.93941L34.5298 6.51309L33.6375 10.3382L37.0001 8.30868Z" fill="#89B9AD" fill-opacity="0.7"/>
<path d="M21.2207 8.30868L24.5833 10.3382L23.691 6.51309L26.6619 3.93941L22.7497 3.6075L21.2207 0L19.6917 3.6075L15.7795 3.93941L18.7504 6.51309L17.858 10.3382L21.2207 8.30868Z" fill="#89B9AD" fill-opacity="0.7"/>
<path d="M5.44124 8.30868L8.80389 10.3382L7.91153 6.51309L10.8824 3.93941L6.97021 3.6075L5.44124 0L3.91227 3.6075L6.10352e-05 3.93941L2.97094 6.51309L2.07859 10.3382L5.44124 8.30868Z" fill="#89B9AD" fill-opacity="0.7"/>
</svg>
